<svg width="1707" height="311" viewBox="0 0 1707 311" fill="none" xmlns="http://www.w3.org/2000/svg">
<path d="M313.712 164.519C313.239 163.716 312.943 162.855 312.651 161.969C311.188 157.42 311.565 152.478 313.701 148.203C313.641 153.642 313.645 159.081 313.712 164.519Z" fill="#132E23"/>
<path d="M259.664 54.2258C264.97 53.6978 270.075 54.1292 274.665 57.0649C278.976 59.8202 281.839 63.9122 282.893 68.9145C286.651 86.7308 270.364 89.4908 269.19 93.5508C268.062 97.4608 268.925 103.213 268.932 107.352C268.953 115.707 269.807 161.067 268.157 164.408C266.644 167.473 262.745 170.446 260.292 172.88L241.046 192.113C237.715 195.407 228.972 203.627 226.945 206.867L226.719 207.231C226.391 215.605 226.613 225.197 226.617 233.645L226.592 280.533C226.571 288.99 226.804 297.793 226.522 306.259C226.469 307.899 225.743 308.532 224.526 309.523C224.297 309.601 224.065 309.675 223.832 309.742C214.335 312.491 216.15 300.395 216.147 294.765L216.136 230.529C216.118 222.576 216.034 214.527 216.161 206.58C216.309 204.636 216.221 202.024 217.536 200.416C219.859 197.578 222.75 194.792 225.337 192.183L245.647 171.902C248.545 169.044 256.541 161.482 258.3 158.721L258.487 158.421C258.487 136.831 258.078 113.529 258.638 92.0408C256.667 91.4068 254.986 90.9718 253.064 89.9668C243.43 84.9238 240.623 72.369 245.855 63.176C248.876 57.8674 253.829 55.6193 259.664 54.2258ZM264.97 82.3088C268.266 81.6538 270.959 79.2758 272.013 76.0838C273.068 72.8913 272.324 69.3787 270.067 66.8874C267.808 64.3964 264.384 63.312 261.102 64.0486C256.117 65.1682 252.955 70.0888 254.016 75.0878C255.074 80.0868 259.957 83.3048 264.97 82.3088Z" fill="#1C3C2D"/>
<path d="M313.701 148.203C314.727 144.429 318.365 141.133 321.654 139.243C326.498 136.409 332.291 135.68 337.684 137.224C342.842 138.672 347.221 141.95 349.819 146.661C352.491 151.433 353.105 157.087 351.515 162.32C349.939 167.513 346.709 171.404 341.911 173.899C335.266 177.352 329.541 176.222 322.677 174.587C316.952 179.294 310.327 186.186 304.969 191.513L279.092 217.193C276.001 220.252 254.866 240.735 253.555 243.035C252.627 263.522 253.928 284.6 253.339 305.176C253.791 310.474 246.401 311.213 243.567 308.273C242.908 307.591 242.668 304.279 242.654 303.373C242.435 288.012 242.545 272.613 242.566 257.249C242.573 251.349 242.224 244.257 242.901 238.462C246.461 233.567 251.901 228.396 256.343 224.14C275.193 206.089 293.518 187.514 312.221 169.316C313.042 168.517 313.779 167.671 314.085 166.564C313.952 165.88 313.807 165.211 313.712 164.519C313.239 163.716 312.943 162.855 312.651 161.969C311.188 157.42 311.565 152.478 313.701 148.203ZM333.969 165.973C339.179 164.943 342.585 159.905 341.598 154.688C340.611 149.472 335.601 146.026 330.373 146.969C325.085 147.924 321.587 153.005 322.589 158.284C323.586 163.563 328.698 167.016 333.969 165.973Z" fill="#1C3C2D"/>
<path fill-rule="evenodd" clip-rule="evenodd" d="M85.1811 287.133C83.6361 286.428 82.097 285.71 80.565 284.981C8.30502 250.636 -19.773 170.813 14.586 98.3558C31.261 63.1919 59.998 34.6049 90.533 11.2208C94.195 8.4154 102.988 1.316 106.742 0C108.903 0.7672 111.495 1.9829 112.759 4.0157C140.892 49.2443 160.244 104.522 154.724 158.266C151.96 185.188 143.368 210.526 125.659 230.875C123.224 233.673 120.831 236.371 118.081 238.818C116.916 239.796 114.488 241.377 112.93 240.968C110.108 240.402 107.32 234.279 109.351 232.037C125.707 213.983 135.483 196.38 140.548 172.018C148.748 132.571 140.833 91.4078 125.37 54.6266C119.959 41.7556 113.42 26.6429 105.678 14.8895C102.738 17.5313 98.991 19.9722 95.831 22.4261C65.864 45.6972 38.977 73.1498 23.592 108.276C9.75103 139.976 8.89005 175.837 21.195 208.164C34.424 241.924 60.763 264.026 93.307 278.239C95.593 279.189 107.214 284.376 108.633 283.636C107.844 282.224 102.308 277.754 100.679 276.088C98.3 273.655 96.427 271.58 94.177 268.945C87.202 260.962 80.174 248.648 75.983 239.181C59.822 202.681 62.685 159.768 78.233 123.571L78.238 123.559C80.573 118.123 81.74 115.406 87.301 113.046C89.921 114.07 94.12 116.282 93.184 119.754C91.814 124.835 89.185 129.569 87.348 134.565C83.306 145.553 80.26 157.034 78.667 168.641C74.198 206.669 82.63 235.827 105.865 265.779C108.204 268.259 109.939 270.887 112.605 273.446C118.809 279.403 124.093 284.943 131.805 289.337C146.414 297.664 167.524 302.073 184.023 298.078C189.054 296.86 191.314 290.78 190.877 286.494C190.341 241.039 191.631 195.174 190.753 149.753C179.236 145.724 172.858 135.132 176.87 122.981C180.332 112.49 193.119 106.658 203.208 111.072C220.208 117.842 221.537 141.597 203.772 148.678C202.937 149.009 202.091 149.306 201.234 149.569C201.513 161.108 201.308 173.434 201.312 185.026L201.333 248.678C201.305 257.957 201.329 267.236 201.403 276.515C201.46 281.698 202.059 289.372 201.269 294.261C199.242 306.841 185.37 310.171 174.836 310.263C161.232 310.382 150.067 309.055 137.306 304.411C132.31 302.641 126.762 299.798 121.813 298.36C117.528 297.115 112.516 296.221 108.115 295.084C100.265 293.067 92.5951 290.407 85.1811 287.133ZM205.606 127.577C206.878 132.911 203.557 138.258 198.209 139.484C192.925 140.696 187.654 137.422 186.396 132.15C185.141 126.879 188.373 121.581 193.633 120.281C198.96 118.966 204.336 122.243 205.606 127.577Z" fill="url(#paint0_linear_1112_20)"/>
<path d="M650.846 116.241C678.012 115.038 686.439 117.987 707.869 133.116C708.149 128.231 708.138 125.012 707.914 120.114C716.315 119.875 725.177 119.936 733.617 119.861C732.835 148.469 734.036 177.484 733.515 206.036C733.238 221.145 735.205 252.919 730.48 266.364C716.638 305.746 659.483 304.258 626.841 293.347C621.02 291.418 606.187 283.863 603.801 278.795C604.346 274.753 614.15 265.1 617.338 261.757C636.971 272.396 643.339 276.901 666.838 277.355C701.616 278.028 706.074 259.189 707.218 230.61C694.786 239.591 687.105 247.512 671.046 248.959C661.898 249.788 653.91 249.998 644.909 248.055C573.623 232.696 575.063 124.617 650.846 116.241ZM671.853 225.386C699.51 219.428 710.353 195.812 703.772 169.338C697.86 145.555 679.814 137.247 656.603 139.19C649.928 140.581 645.259 141.846 639.643 145.697C613.084 163.89 618.632 213.68 650.108 223.89C656.561 225.984 665.32 227.023 671.853 225.386Z" fill="#1C3C2D"/>
<path d="M935.499 116.23C982.303 113.426 1018.27 136.218 1017.68 186.896C1017.29 220.612 988.556 245.538 955.687 248.375C934.487 250.585 912.246 247.235 895.275 233.453C858.425 203.542 865.625 139.705 910.825 121.702C918.893 118.492 926.788 116.926 935.499 116.23ZM953.886 225.631C977.828 220.706 993.281 197.536 988.494 173.743C983.706 149.952 960.473 134.441 936.457 139.015C912.188 143.636 896.361 166.988 901.198 191.038C906.036 215.079 929.688 230.616 953.886 225.631Z" fill="#1C3C2D"/>
<path d="M1628.36 116.106C1677.19 113.737 1716.8 151.42 1704.39 200.509C1696.72 230.853 1668.05 245.168 1639.35 248.963C1617.03 249.357 1599.94 246.779 1581.96 231.88C1568.61 220.806 1561.23 205.381 1559.91 188.258C1558.48 170.912 1564.12 153.722 1575.57 140.528C1589.41 124.712 1607.69 117.588 1628.36 116.106ZM1637.83 226.348C1662.08 223.992 1679.85 202.661 1677.6 178.61C1675.36 154.566 1653.92 136.834 1629.65 138.938C1605.19 141.056 1587.15 162.489 1589.41 186.715C1591.68 210.943 1613.4 228.722 1637.83 226.348Z" fill="#6D8D35"/>
<path d="M1069.2 64.4987C1098.89 63.7808 1093.64 60.9361 1112.23 84.0368L1137.71 115.856C1159.67 143.381 1186.26 175.134 1206.46 203.65C1205.47 182.04 1205.78 159.364 1205.78 137.602C1205.78 113.537 1205.46 88.7831 1205.93 64.7587C1214.23 63.9515 1223.88 65.1623 1232.43 64.5394C1232.15 95.0332 1232.83 125.806 1232.63 156.36C1232.43 176.248 1232.41 196.141 1232.56 216.034C1232.59 225.594 1232.24 236.311 1232.69 245.769C1224.26 245.932 1215.34 246.021 1206.95 245.406C1199.77 238.178 1188.34 223.105 1181.4 214.577L1127.95 147.723C1117.35 134.457 1106.65 120.274 1095.06 107.888C1096.25 153.913 1096.64 199.958 1096.22 246C1089.1 245.263 1073.87 245.686 1066.16 245.672C1065.09 200.887 1066.25 155.759 1065.83 110.939C1065.7 96.3935 1065.72 81.5124 1066.02 66.9611C1067.19 64.8888 1066.61 65.5795 1069.2 64.4987Z" fill="#6D8D35"/>
<path d="M476.275 64.2009C484.811 63.9887 494.179 63.7473 502.631 64.6116C505.464 69.5443 509.27 79.3552 511.576 84.8991C516.534 96.9038 521.552 108.889 526.632 120.847L580.692 246C570.877 245.56 558.369 246.014 548.131 245.815C544.533 233.411 535.684 215.32 531.109 201.38C524.04 200.722 510.048 201.201 502.481 201.236C483.263 201.407 464.043 201.345 444.826 201.051C443.721 203.095 442.859 205.215 442.047 207.397C437.271 220.219 432.912 233.246 427.528 245.829L396.692 245.946C399.931 234.542 408.989 214.572 413.858 203.089L447.101 125.237L464.396 84.0485C466.909 78.1619 469.574 71.816 472.398 66.0463C473.147 64.524 474.725 64.524 476.275 64.2009ZM453.916 177.711C465.328 177.781 476.74 177.787 488.151 177.725C498.506 177.746 510.896 178.083 521.085 177.464C516.756 166.894 490.208 102.393 486.583 99.1891C483.988 107.125 480.931 113.89 477.618 121.54C469.558 140.152 462.398 159.285 453.916 177.711Z" fill="#1C3C2D"/>
<path d="M1331.7 116.068C1351.08 115.278 1370.44 121.335 1383.98 135.428C1398.47 150.515 1401.04 168.922 1400.66 188.856C1366.3 188.457 1330.14 188.66 1295.77 189.032C1297.66 200.297 1299.79 208.575 1308.94 216.29C1328.49 232.762 1362.7 229.665 1379.02 210.468C1383.68 212.828 1394.43 218.934 1398.07 222.125C1387.48 238.822 1372.33 246.389 1352.66 248.364C1330.01 250.609 1307.01 247.255 1288.84 232.824C1260.82 210.576 1258.26 166.433 1281.03 139.688C1294.25 124.163 1311.77 117.914 1331.7 116.068ZM1295.51 169.313C1310.28 170.117 1327.58 169.394 1342.57 169.509C1349.92 169.576 1364.86 170.077 1371.76 169.137C1363.99 144.063 1352.79 137.566 1326.61 138.978C1309.34 142.19 1299.39 152.522 1295.51 169.313Z" fill="#6D8D35"/>
<path d="M1517.11 120.148C1527.22 119.924 1537.88 120.025 1548.01 120.011C1543.08 128.36 1536.99 134.491 1531.27 141.865C1521.03 155.043 1507.44 169.666 1497.93 183.063C1503.7 189.297 1548.3 239.804 1550.69 245.016L1549.88 245.861L1547.82 245.759C1538.67 245.854 1525.35 246.386 1516.59 245.478C1512.11 241.549 1506.54 234.116 1502.62 229.293C1494.78 219.655 1487.34 209.97 1479.08 200.653C1473.05 210.154 1452.01 236.885 1444.04 245.472C1433.77 246.216 1421.12 245.832 1410.69 245.751C1412.43 243.624 1414.07 241.393 1415.72 239.204C1430.67 219.424 1448.13 201.718 1463.66 182.42C1449.88 161.29 1424.79 140.828 1412.44 120.21C1423.91 120.17 1435.14 119.821 1446.62 120.23L1446.97 120.543C1450.84 123.907 1458.04 133.802 1461.6 138.434C1467.61 146.245 1476.3 155.84 1481.57 163.841C1489.15 153.843 1508.4 127.201 1517.11 120.148Z" fill="#6D8D35"/>
<path d="M837.483 116.032C863.298 115.504 855.463 121.37 855.912 143.759C842.381 141.032 821.565 141.23 811.497 152.114C798.649 166.005 800.372 184.757 800.389 202.236L800.671 245.99C793.863 245.532 784.463 245.833 777.46 245.86C774.8 245.928 774.214 246.386 772.167 245.162C771.258 234.873 771.931 213.435 771.946 202.469L771.998 119.881L800.679 119.819C800.466 125.547 800.354 131.277 800.343 137.011C811.317 124.645 820.332 117.747 837.483 116.032Z" fill="#1C3C2D"/>
<defs>
<linearGradient id="paint0_linear_1112_20" x1="44.998" y1="291.307" x2="157.386" y2="302.401" gradientUnits="userSpaceOnUse">
<stop offset="0.780442" stop-color="#6D8D35"/>
<stop offset="1" stop-color="#1C3C2D"/>
</linearGradient>
</defs>
</svg>
