<svg width="722" height="523" viewBox="0 0 722 523" fill="none" xmlns="http://www.w3.org/2000/svg">
<path d="M144.38 417.068C158.442 416.444 162.804 417.974 173.897 425.822C174.042 423.288 174.036 421.618 173.92 419.077C178.269 418.953 182.856 418.985 187.225 418.946C186.82 433.787 187.442 448.839 187.172 463.651C187.029 471.489 188.047 487.972 185.601 494.947C178.436 515.377 148.851 514.605 131.954 508.945C128.941 507.944 121.263 504.025 120.028 501.396C120.31 499.299 125.385 494.291 127.035 492.557C137.198 498.076 140.494 500.413 152.658 500.649C170.66 500.998 172.968 491.225 173.56 476.399C167.125 481.058 163.149 485.167 154.836 485.918C150.101 486.348 145.966 486.457 141.307 485.449C104.407 477.481 105.152 421.413 144.38 417.068ZM155.254 473.689C169.57 470.598 175.183 458.347 171.776 444.613C168.716 432.275 159.375 427.965 147.36 428.973C143.905 429.695 141.488 430.351 138.581 432.349C124.833 441.787 127.705 467.616 143.998 472.913C147.338 473.999 151.872 474.538 155.254 473.689Z" fill="#1C3C2D"/>
<path d="M291.407 417.061C315.643 415.598 334.27 427.489 333.965 453.928C333.762 471.518 318.881 484.522 301.861 486.002C290.883 487.155 279.366 485.407 270.578 478.217C251.496 462.612 255.224 429.308 278.63 419.916C282.808 418.241 286.896 417.424 291.407 417.061ZM300.928 474.136C313.326 471.567 321.328 459.479 318.849 447.066C316.37 434.654 304.339 426.562 291.903 428.948C279.336 431.359 271.14 443.542 273.645 456.089C276.15 468.631 288.398 476.737 300.928 474.136Z" fill="#1C3C2D"/>
<path d="M649.609 417.068C674.827 415.834 695.288 435.464 688.879 461.036C684.916 476.843 670.106 484.3 655.285 486.277C643.757 486.482 634.93 485.139 625.647 477.378C618.748 471.609 614.937 463.574 614.257 454.654C613.516 445.618 616.428 436.663 622.344 429.79C629.49 421.551 638.935 417.84 649.609 417.068ZM654.499 474.496C667.025 473.269 676.205 462.157 675.042 449.628C673.882 437.103 662.812 427.866 650.276 428.962C637.644 430.065 628.323 441.23 629.494 453.85C630.664 466.471 641.882 475.733 654.499 474.496Z" fill="#6D8D35"/>
<path d="M360.676 390.59C376.075 390.22 373.357 388.754 382.999 400.659L396.212 417.057C407.602 431.242 421.394 447.606 431.871 462.302C431.36 451.165 431.522 439.479 431.522 428.264C431.522 415.862 431.353 403.105 431.6 390.724C435.901 390.308 440.91 390.932 445.342 390.611C445.197 406.326 445.55 422.185 445.447 437.931C445.345 448.18 445.335 458.432 445.412 468.684C445.426 473.611 445.246 479.134 445.479 484.008C441.108 484.092 436.479 484.138 432.128 483.821C428.402 480.096 422.476 472.328 418.873 467.933L391.149 433.48C385.653 426.643 380.101 419.334 374.09 412.951C374.707 436.67 374.908 460.399 374.693 484.127C370.998 483.747 363.098 483.965 359.1 483.958C358.547 460.878 359.146 437.621 358.931 414.523C358.86 407.027 358.874 399.358 359.029 391.859C359.636 390.791 359.333 391.147 360.676 390.59Z" fill="#6D8D35"/>
<path d="M54.2813 390.671C58.6764 390.562 63.5005 390.438 67.8523 390.882C69.3114 393.416 71.2712 398.456 72.4586 401.304C75.0113 407.471 77.5954 413.628 80.2109 419.771L108.048 484.064C102.994 483.838 96.5535 484.071 91.2813 483.969C89.4287 477.597 84.8722 468.303 82.5165 461.142C78.8765 460.804 71.6717 461.05 67.7754 461.068C57.8793 461.156 47.9825 461.124 38.0871 460.973C37.5181 462.023 37.0742 463.112 36.6564 464.233C34.197 470.82 31.9526 477.512 29.1799 483.976L13.3018 484.036C14.9698 478.178 19.634 467.919 22.1408 462.02L39.2585 422.026L48.1644 400.867C49.4582 397.843 50.8303 394.583 52.2849 391.619C52.6702 390.837 53.4828 390.837 54.2813 390.671ZM42.7681 448.983C48.6442 449.019 54.5203 449.022 60.3961 448.99C65.7282 449.001 72.1085 449.174 77.355 448.856C75.1259 443.426 61.4555 410.291 59.5891 408.645C58.2526 412.722 56.6786 416.197 54.9726 420.127C50.8222 429.688 47.1353 439.517 42.7681 448.983Z" fill="#1C3C2D"/>
<path d="M520.02 191.415C519.547 190.612 519.251 189.751 518.959 188.865C517.496 184.316 517.873 179.374 520.009 175.099C519.949 180.538 519.953 185.977 520.02 191.415Z" fill="#132E23"/>
<path d="M496.156 417.061C506.133 416.649 516.1 419.806 523.073 427.151C530.536 435.014 531.858 444.607 531.661 454.996C513.97 454.788 495.349 454.894 477.655 455.088C478.628 460.959 479.721 465.273 484.435 469.294C494.5 477.879 512.116 476.265 520.52 466.26C522.918 467.49 528.453 470.672 530.328 472.335C524.874 481.037 517.076 484.981 506.944 486.01C495.286 487.18 483.44 485.432 474.084 477.911C459.658 466.316 458.34 443.31 470.062 429.371C476.869 421.28 485.894 418.023 496.156 417.061ZM477.521 444.811C485.122 445.23 494.034 444.853 501.751 444.913C505.534 444.948 513.226 445.209 516.784 444.719C512.782 431.651 507.015 428.265 493.534 429.001C484.639 430.675 479.517 436.06 477.521 444.811Z" fill="#6D8D35"/>
<path d="M592.262 419.059C597.504 418.943 603.035 418.995 608.288 418.988C605.729 423.302 602.574 426.47 599.605 430.28C594.296 437.089 587.249 444.645 582.32 451.567C585.31 454.788 608.436 480.885 609.677 483.578L609.254 484.015L608.186 483.962C603.441 484.011 596.535 484.286 591.997 483.817C589.671 481.787 586.783 477.946 584.749 475.454C580.684 470.474 576.831 465.47 572.548 460.656C569.421 465.565 558.51 479.377 554.378 483.814C549.051 484.198 542.494 484 537.086 483.958C537.985 482.859 538.835 481.706 539.691 480.575C547.447 470.355 556.497 461.206 564.552 451.235C557.403 440.317 544.394 429.744 537.992 419.091C543.939 419.07 549.76 418.89 555.714 419.101L555.897 419.263C557.903 421.001 561.637 426.114 563.484 428.507C566.597 432.543 571.102 437.501 573.838 441.635C577.765 436.469 587.749 422.703 592.262 419.059Z" fill="#6D8D35"/>
<path d="M465.972 81.122C471.278 80.594 476.383 81.0254 480.973 83.9611C485.284 86.7164 488.147 90.8084 489.201 95.8107C492.959 113.627 476.672 116.387 475.498 120.447C474.37 124.357 475.233 130.109 475.24 134.248C475.261 142.603 476.115 187.963 474.465 191.304C472.952 194.369 469.053 197.342 466.6 199.776L447.354 219.009C444.023 222.303 435.28 230.523 433.253 233.763L433.027 234.127C432.699 242.501 432.921 252.093 432.925 260.541L432.9 307.429C432.879 315.886 433.112 324.689 432.83 333.155C432.777 334.795 432.051 335.428 430.834 336.419C430.605 336.497 430.373 336.571 430.14 336.638C420.643 339.387 422.458 327.291 422.455 321.661L422.444 257.425C422.426 249.472 422.342 241.423 422.469 233.476C422.617 231.532 422.529 228.92 423.844 227.312C426.167 224.474 429.058 221.688 431.645 219.079L451.955 198.798C454.853 195.94 462.849 188.378 464.608 185.617L464.795 185.317C464.795 163.727 464.386 140.425 464.946 118.937C462.975 118.303 461.294 117.868 459.372 116.863C449.738 111.82 446.931 99.2652 452.163 90.0722C455.184 84.7636 460.137 82.5155 465.972 81.122ZM471.278 109.205C474.574 108.55 477.267 106.172 478.321 102.98C479.376 99.7875 478.632 96.2749 476.375 93.7836C474.116 91.2926 470.692 90.2082 467.41 90.9448C462.425 92.0644 459.263 96.985 460.324 101.984C461.382 106.983 466.265 110.201 471.278 109.205Z" fill="#1C3C2D"/>
<path d="M520.009 175.099C521.035 171.325 524.673 168.029 527.962 166.139C532.806 163.305 538.599 162.576 543.992 164.12C549.15 165.568 553.529 168.846 556.127 173.557C558.799 178.329 559.413 183.983 557.823 189.216C556.247 194.409 553.017 198.3 548.219 200.795C541.574 204.248 535.849 203.118 528.985 201.483C523.26 206.19 516.635 213.082 511.277 218.409L485.4 244.089C482.309 247.148 461.174 267.631 459.863 269.931C458.935 290.418 460.236 311.496 459.647 332.072C460.099 337.37 452.709 338.109 449.875 335.169C449.216 334.487 448.976 331.175 448.962 330.269C448.743 314.908 448.853 299.509 448.874 284.145C448.881 278.245 448.532 271.153 449.209 265.358C452.769 260.463 458.209 255.292 462.651 251.036C481.501 232.985 499.826 214.41 518.529 196.212C519.35 195.413 520.087 194.567 520.393 193.46C520.26 192.776 520.115 192.107 520.02 191.415C519.547 190.612 519.251 189.751 518.959 188.865C517.496 184.316 517.873 179.374 520.009 175.099ZM540.277 192.869C545.487 191.839 548.893 186.801 547.906 181.584C546.919 176.368 541.909 172.922 536.681 173.865C531.393 174.82 527.895 179.901 528.897 185.18C529.894 190.459 535.006 193.912 540.277 192.869Z" fill="#1C3C2D"/>
<path fill-rule="evenodd" clip-rule="evenodd" d="M291.489 314.029C289.944 313.324 288.405 312.606 286.873 311.877C214.613 277.532 186.535 197.709 220.894 125.252C237.569 90.0881 266.306 61.5011 296.841 38.117C300.503 35.3116 309.296 28.2122 313.05 26.8962C315.211 27.6634 317.803 28.8791 319.067 30.9119C347.2 76.1405 366.552 131.418 361.032 185.162C358.268 212.084 349.676 237.422 331.967 257.771C329.532 260.569 327.139 263.267 324.389 265.714C323.224 266.692 320.796 268.273 319.238 267.864C316.416 267.298 313.628 261.175 315.659 258.933C332.015 240.879 341.791 223.276 346.856 198.914C355.056 159.467 347.141 118.304 331.678 81.5228C326.267 68.6518 319.728 53.5391 311.986 41.7857C309.046 44.4275 305.299 46.8684 302.139 49.3223C272.172 72.5934 245.285 100.046 229.9 135.172C216.059 166.872 215.198 202.733 227.503 235.06C240.732 268.82 267.071 290.922 299.615 305.135C301.901 306.085 313.522 311.272 314.941 310.532C314.152 309.12 308.616 304.65 306.987 302.984C304.608 300.551 302.735 298.476 300.485 295.841C293.51 287.858 286.482 275.544 282.291 266.077C266.13 229.577 268.993 186.664 284.541 150.467L284.546 150.455C286.881 145.019 288.048 142.302 293.609 139.942C296.229 140.966 300.428 143.178 299.492 146.65C298.122 151.731 295.493 156.465 293.656 161.461C289.614 172.449 286.568 183.93 284.975 195.537C280.506 233.565 288.938 262.723 312.173 292.675C314.512 295.155 316.247 297.783 318.913 300.342C325.117 306.299 330.401 311.839 338.113 316.233C352.722 324.56 373.832 328.969 390.331 324.974C395.362 323.756 397.622 317.676 397.185 313.39C396.649 267.935 397.939 222.07 397.061 176.649C385.544 172.62 379.166 162.028 383.178 149.877C386.64 139.386 399.427 133.554 409.516 137.968C426.516 144.738 427.845 168.493 410.08 175.574C409.245 175.905 408.399 176.202 407.542 176.465C407.821 188.004 407.616 200.33 407.62 211.922L407.641 275.574C407.613 284.853 407.637 294.132 407.711 303.411C407.768 308.594 408.367 316.268 407.577 321.157C405.55 333.737 391.678 337.067 381.144 337.159C367.54 337.278 356.375 335.951 343.614 331.307C338.618 329.537 333.07 326.694 328.121 325.256C323.836 324.011 318.824 323.117 314.423 321.98C306.573 319.963 298.903 317.303 291.489 314.029ZM411.914 154.473C413.186 159.807 409.865 165.154 404.517 166.38C399.233 167.592 393.962 164.318 392.704 159.046C391.449 153.775 394.681 148.477 399.941 147.177C405.268 145.862 410.644 149.139 411.914 154.473Z" fill="url(#paint0_linear_457_1801)"/>
<path d="M241.086 417.054C254.44 416.782 250.387 419.806 250.619 431.348C243.62 429.942 232.852 430.044 227.644 435.655C220.998 442.816 221.889 452.483 221.898 461.494L222.044 484.05C218.522 483.814 213.66 483.969 210.037 483.983C208.661 484.018 208.358 484.254 207.299 483.623C206.829 478.319 207.177 467.267 207.185 461.614L207.212 419.038L222.048 419.006C221.938 421.959 221.88 424.913 221.874 427.869C227.551 421.494 232.214 417.938 241.086 417.054Z" fill="#1C3C2D"/>
<defs>
<linearGradient id="paint0_linear_457_1801" x1="251.306" y1="318.203" x2="363.694" y2="329.297" gradientUnits="userSpaceOnUse">
<stop offset="0.780442" stop-color="#6D8D35"/>
<stop offset="1" stop-color="#1C3C2D"/>
</linearGradient>
</defs>
</svg>
